<svg id="Capa_1" enable-background="new 0 0 512 512" height="512" viewBox="0 0 512 512" width="512" xmlns="http://www.w3.org/2000/svg"><g><circle cx="369" cy="489.5" fill="#ff8646" r="15"/><circle cx="143" cy="489.5" fill="#ffa754" r="15"/><path d="m301 187.5h-60v80l60-20z" fill="#ff8d7e"/><path d="m271 187.5h-60v60l60 20z" fill="#ffb4a9"/><path d="m211 247.5v60c0 8.28 6.72 15 15 15s15-6.72 15-15v-17.571c4.693 1.659 9.739 2.571 15 2.571s10.307-.912 15-2.571l20-21.215v-21.214z" fill="#49c9ff"/><path d="m271 247.5v60c0 8.284 6.716 15 15 15s15-6.716 15-15v-60z" fill="#2dade3"/><path d="m401 52.5c0-9.81-6.28-18.149-15.038-21.228.023-.421.038-.845.038-1.272 0-12.426-10.074-22.5-22.5-22.5h-30v90h30c12.426 0 22.5-10.074 22.5-22.5 0-.427-.015-.851-.038-1.272 8.758-3.079 15.038-11.418 15.038-21.228z" fill="#ffcb63"/><path d="m356 75c0-.427-.015-.851-.038-1.272 8.758-3.079 15.038-11.418 15.038-21.228s-6.28-18.149-15.038-21.228c.023-.421.038-.845.038-1.272 0-12.426-10.074-22.5-22.5-22.5h-77.5v90h77.5c12.426 0 22.5-10.074 22.5-22.5z" fill="#ffe2a8"/><path d="m270.092 37.047-14.092 60.453c24.853 0 45-20.147 45-45z" fill="#ff8d7e"/><path d="m271 52.5c0-5.429-.321-10.634-.908-15.453l-41.095-20.546c-10.927 8.211-17.997 21.279-17.997 35.999 0 24.853 20.147 45 45 45 8.284 0 15-20.147 15-45z" fill="#ffb4a9"/><path d="m256 7.5 14.899 39.832c9.413 3.341 19.542 5.168 30.101 5.168 0-24.853-20.147-45-45-45z" fill="#ffcb63"/><path d="m256 7.5c-10.132 0-19.481 3.35-27.003 9.002 10.532 14.02 25.066 24.856 41.901 30.831-.854-22.418-7.197-39.833-14.898-39.833z" fill="#ffe2a8"/><path d="m296 127.5h-30l20 116.498c8.212 2.767 17.881 4.502 30 4.502v-101c0-11.046-8.954-20-20-20z" fill="#ebebeb"/><path d="m266 127.5h-50c-11.046 0-20 8.954-20 20v58.5c47.881 0 57.554 27.064 90 37.998v-96.498c0-11.046-8.954-20-20-20z" fill="#fff"/><path d="m369 467c-12.406 0-22.5 10.094-22.5 22.5s10.094 22.5 22.5 22.5 22.5-10.094 22.5-22.5-10.094-22.5-22.5-22.5zm0 30c-4.136 0-7.5-3.364-7.5-7.5s3.364-7.5 7.5-7.5 7.5 3.364 7.5 7.5-3.364 7.5-7.5 7.5z"/><path d="m143 467c-12.406 0-22.5 10.094-22.5 22.5s10.094 22.5 22.5 22.5 22.5-10.094 22.5-22.5-10.094-22.5-22.5-22.5zm0 30c-4.136 0-7.5-3.364-7.5-7.5s3.364-7.5 7.5-7.5 7.5 3.364 7.5 7.5-3.364 7.5-7.5 7.5z"/><path d="m308.5 307.5v-51.725c2.405.143 4.895.225 7.5.225 4.143 0 7.5-3.357 7.5-7.5v-93.144c41.987 3.804 75 39.183 75 82.144 0 4.143 3.357 7.5 7.5 7.5s7.5-3.357 7.5-7.5c0-51.572-40.25-93.913-90.985-97.277-3.199-11.642-13.871-20.223-26.515-20.223h-80c-12.465 0-23.013 8.339-26.375 19.729-42.52-3.268-76.125-38.886-76.125-82.229 0-4.143-3.357-7.5-7.5-7.5s-7.5 3.357-7.5 7.5c0 51.239 39.729 93.372 90 97.214v51.286c0 4.143 3.357 7.5 7.5 7.5 2.622 0 5.117.088 7.5.254v93.746c0 9.777 6.271 18.114 15 21.21v108.29h-90.5c-4.136 0-7.5-3.364-7.5-7.5 0-4.143-3.357-7.5-7.5-7.5s-7.5 3.357-7.5 7.5c0 12.406 10.094 22.5 22.5 22.5h256c12.406 0 22.5-10.094 22.5-22.5 0-4.143-3.357-7.5-7.5-7.5s-7.5 3.357-7.5 7.5c0 4.136-3.364 7.5-7.5 7.5h-150.5v-108.29c8.729-3.096 15-11.433 15-21.21v-8.035c4.949.713 10.051.713 15 0v8.035c0 9.777 6.271 18.114 15 21.21v23.79c0 12.406 10.094 22.5 22.5 22.5h59.595l8.29 24.872c1.048 3.143 3.974 5.13 7.114 5.13.786 0 1.586-.125 2.373-.387 3.93-1.31 6.053-5.558 4.743-9.487l-10-30c-1.02-3.063-3.886-5.128-7.115-5.128h-65c-4.136 0-7.5-3.364-7.5-7.5v-23.79c8.729-3.096 15-11.433 15-21.21zm-92.5-172.5h80c6.893 0 12.5 5.607 12.5 12.5v93.247c-22.707-1.585-35.108-10.369-48.165-19.617-14.445-10.232-29.342-20.784-56.835-22.413v-51.217c0-6.893 5.607-12.5 12.5-12.5zm35.665 98.37c3.144 2.227 6.312 4.468 9.624 6.63h-42.789v-23.88c13.824 3.555 23.31 10.269 33.165 17.25zm23.665 50.436c-1.986-1.404-4.533-1.758-6.83-.947-8.039 2.842-16.961 2.842-25 0-2.296-.811-4.843-.457-6.83.947-1.988 1.406-3.17 3.689-3.17 6.124v17.57c0 4.136-3.364 7.5-7.5 7.5s-7.5-3.364-7.5-7.5v-52.5h75v52.5c0 4.136-3.364 7.5-7.5 7.5s-7.5-3.364-7.5-7.5v-17.57c0-2.435-1.182-4.718-3.17-6.124z"/><path d="m256 105h107.5c15.322 0 27.999-11.547 29.785-26.396 9.274-5.257 15.215-15.187 15.215-26.104s-5.942-20.848-15.215-26.104c-1.786-14.849-14.463-26.396-29.785-26.396h-107.5c-28.948 0-52.5 23.552-52.5 52.5s23.552 52.5 52.5 52.5zm107.5-90c8.271 0 15 6.729 15 15 0 .287-.011.572-.026.856-.186 3.332 1.854 6.385 5.001 7.491 5.997 2.108 10.025 7.795 10.025 14.152 0 6.356-4.029 12.044-10.025 14.152-3.148 1.106-5.187 4.16-5.001 7.492.016.283.026.568.026.855 0 8.271-6.729 15-15 15h-70.808c9.745-9.537 15.808-22.821 15.808-37.5s-6.063-27.963-15.808-37.5h70.808zm-70.849 29.58c-20.154-2-38.58-11.212-52.297-26.147 4.765-2.197 10.063-3.433 15.646-3.433 17.96 0 33.005 12.694 36.651 29.58zm-64.452-17.219c16.692 18.803 39.576 30.244 64.607 32.299-3.352 17.264-18.577 30.34-36.806 30.34-20.678 0-37.5-16.822-37.5-37.5 0-9.663 3.675-18.483 9.699-25.139z"/></g></svg>